<?xml version="1.0" standalone="no"?>
<!DOCTYPE svg PUBLIC "-//W3C//DTD SVG 20010904//EN"
 "http://www.w3.org/TR/2001/REC-SVG-20010904/DTD/svg10.dtd">
<svg version="1.0" xmlns="http://www.w3.org/2000/svg"
 width="1024.000000pt" height="1024.000000pt" viewBox="0 0 1024.000000 1024.000000"
 preserveAspectRatio="xMidYMid meet">
<metadata>
Created by potrace 1.11, written by Peter Selinger 2001-2013
</metadata>
<g transform="translate(0.000000,1024.000000) scale(0.100000,-0.100000)"
fill="#000000" stroke="none">
<path d="M5008 9465 c-2 -1 -46 -5 -99 -9 -109 -8 -119 -9 -246 -36 -220 -47
-339 -89 -548 -195 -540 -273 -944 -775 -1096 -1365 -16 -63 -32 -130 -35
-150 -3 -19 -9 -60 -14 -90 -20 -125 -30 -455 -16 -525 2 -11 7 -49 11 -85 6
-58 22 -145 44 -250 62 -283 247 -642 455 -884 100 -116 175 -187 331 -314
127 -103 430 -263 615 -325 250 -84 439 -113 735 -111 337 1 617 64 915 206
436 207 769 529 995 963 108 207 198 498 221 709 3 34 8 77 10 96 6 61 6 325
-1 396 -63 664 -409 1249 -952 1609 -282 188 -667 325 -979 351 -79 6 -341 13
-346 9z"/>
<path d="M3385 4568 c-238 -30 -350 -53 -515 -108 -193 -65 -433 -187 -595
-303 -145 -104 -329 -273 -421 -387 -16 -19 -31 -37 -34 -40 -13 -12 -112
-152 -155 -220 -108 -169 -257 -515 -280 -649 -3 -19 -8 -37 -10 -41 -2 -3
-11 -48 -20 -100 -9 -52 -18 -106 -20 -118 -18 -106 -28 -977 -12 -1117 20
-185 107 -358 244 -485 83 -77 97 -88 178 -131 83 -45 147 -66 260 -87 22 -4
1433 -7 3135 -7 l3095 0 83 23 c219 60 395 199 510 402 42 74 60 128 80 235
26 135 23 1023 -4 1175 -2 14 -7 41 -10 60 -2 19 -8 49 -11 65 -8 36 -7 31
-17 80 -25 131 -101 337 -188 510 -251 499 -664 878 -1185 1088 -131 53 -326
110 -433 127 -41 6 -88 14 -104 16 -72 12 -136 15 -358 19 l-237 4 -93 -40
c-177 -76 -478 -166 -612 -184 -27 -3 -52 -8 -56 -10 -3 -2 -33 -7 -65 -10
-33 -4 -69 -9 -80 -11 -30 -6 -269 -18 -350 -17 -85 0 -290 11 -325 17 -14 3
-45 7 -70 11 -25 3 -58 8 -75 10 -174 25 -487 116 -655 191 l-85 38 -225 1
c-124 0 -252 -3 -285 -7z"/>
</g>
</svg>
